<svg xmlns="http://www.w3.org/2000/svg" xmlns:xlink="http://www.w3.org/1999/xlink" width="90" zoomAndPan="magnify" viewBox="0 0 67.5 33.749999" height="45" preserveAspectRatio="xMidYMid meet" version="1.0"><defs><g/><clipPath id="669501e046"><path d="M 1 11 L 22.375 11 L 22.375 24.542969 L 1 24.542969 Z M 1 11 " clip-rule="nonzero"/></clipPath><clipPath id="f8ba4a58be"><path d="M 2 5.929688 L 21 5.929688 L 21 20 L 2 20 Z M 2 5.929688 " clip-rule="nonzero"/></clipPath></defs><g fill="#ffffff" fill-opacity="1"><g transform="translate(20.767689, 24.206878)"><g><path d="M 4.125 -0.03125 C 3.101562 -0.03125 2.257812 -0.410156 1.59375 -1.171875 C 0.925781 -1.941406 0.59375 -2.878906 0.59375 -3.984375 L 0.59375 -6.609375 C 0.59375 -6.847656 0.597656 -7.023438 0.609375 -7.140625 C 0.628906 -7.253906 0.675781 -7.382812 0.75 -7.53125 C 0.894531 -7.800781 1.285156 -7.9375 1.921875 -7.9375 C 2.617188 -7.9375 3.03125 -7.742188 3.15625 -7.359375 C 3.21875 -7.203125 3.25 -6.945312 3.25 -6.59375 L 3.25 -3.96875 C 3.25 -3.5625 3.363281 -3.238281 3.59375 -3 C 3.832031 -2.769531 4.148438 -2.65625 4.546875 -2.65625 C 4.941406 -2.65625 5.257812 -2.773438 5.5 -3.015625 C 5.75 -3.253906 5.875 -3.570312 5.875 -3.96875 L 5.875 -6.625 C 5.875 -6.851562 5.878906 -7.023438 5.890625 -7.140625 C 5.910156 -7.253906 5.960938 -7.390625 6.046875 -7.546875 C 6.171875 -7.804688 6.554688 -7.9375 7.203125 -7.9375 C 7.828125 -7.9375 8.210938 -7.800781 8.359375 -7.53125 C 8.429688 -7.382812 8.472656 -7.25 8.484375 -7.125 C 8.492188 -7.007812 8.5 -6.835938 8.5 -6.609375 L 8.5 -1.296875 C 8.5 -1.078125 8.492188 -0.90625 8.484375 -0.78125 C 8.472656 -0.664062 8.425781 -0.539062 8.34375 -0.40625 C 8.1875 -0.144531 7.800781 -0.015625 7.1875 -0.015625 C 6.570312 -0.015625 6.195312 -0.132812 6.0625 -0.375 C 5.957031 -0.539062 5.90625 -0.742188 5.90625 -0.984375 C 5.863281 -0.921875 5.769531 -0.820312 5.625 -0.6875 C 5.488281 -0.5625 5.359375 -0.453125 5.234375 -0.359375 C 4.890625 -0.140625 4.519531 -0.03125 4.125 -0.03125 Z M 4.125 -0.03125 "/></g></g></g><g fill="#ffffff" fill-opacity="1"><g transform="translate(29.646488, 24.206878)"><g><path d="M 0.59375 -6.59375 C 0.59375 -6.820312 0.597656 -6.992188 0.609375 -7.109375 C 0.628906 -7.234375 0.675781 -7.367188 0.75 -7.515625 C 0.894531 -7.773438 1.285156 -7.90625 1.921875 -7.90625 C 2.398438 -7.90625 2.742188 -7.820312 2.953125 -7.65625 C 3.117188 -7.507812 3.207031 -7.289062 3.21875 -7 C 3.226562 -6.90625 3.234375 -6.757812 3.234375 -6.5625 L 3.234375 -1.3125 C 3.234375 -1.082031 3.222656 -0.90625 3.203125 -0.78125 C 3.191406 -0.664062 3.144531 -0.535156 3.0625 -0.390625 C 2.9375 -0.128906 2.550781 0 1.90625 0 C 1.28125 0 0.894531 -0.132812 0.75 -0.40625 C 0.675781 -0.550781 0.628906 -0.679688 0.609375 -0.796875 C 0.597656 -0.910156 0.59375 -1.085938 0.59375 -1.328125 Z M 3.078125 -9.390625 C 3.003906 -9.242188 2.867188 -9.140625 2.671875 -9.078125 C 2.484375 -9.015625 2.226562 -8.984375 1.90625 -8.984375 C 1.59375 -8.984375 1.34375 -9.015625 1.15625 -9.078125 C 0.96875 -9.140625 0.832031 -9.242188 0.75 -9.390625 C 0.675781 -9.546875 0.628906 -9.679688 0.609375 -9.796875 C 0.597656 -9.910156 0.59375 -10.082031 0.59375 -10.3125 C 0.59375 -10.539062 0.597656 -10.710938 0.609375 -10.828125 C 0.628906 -10.941406 0.675781 -11.070312 0.75 -11.21875 C 0.894531 -11.488281 1.285156 -11.625 1.921875 -11.625 C 2.554688 -11.625 2.9375 -11.488281 3.0625 -11.21875 C 3.144531 -11.0625 3.191406 -10.925781 3.203125 -10.8125 C 3.222656 -10.695312 3.234375 -10.523438 3.234375 -10.296875 C 3.234375 -10.066406 3.222656 -9.894531 3.203125 -9.78125 C 3.191406 -9.664062 3.148438 -9.535156 3.078125 -9.390625 Z M 3.078125 -9.390625 "/></g></g></g><g fill="#ffffff" fill-opacity="1"><g transform="translate(33.252046, 24.206878)"><g><path d="M 4.546875 -2.640625 L 7.125 -2.640625 C 7.519531 -2.640625 7.804688 -2.585938 7.984375 -2.484375 C 8.160156 -2.390625 8.28125 -2.25 8.34375 -2.0625 C 8.40625 -1.875 8.4375 -1.625 8.4375 -1.3125 C 8.4375 -1 8.40625 -0.742188 8.34375 -0.546875 C 8.28125 -0.359375 8.171875 -0.226562 8.015625 -0.15625 C 7.867188 -0.0820312 7.738281 -0.0351562 7.625 -0.015625 C 7.507812 -0.00390625 7.335938 0 7.109375 0 L 1.6875 0 C 1.332031 0 1.023438 -0.128906 0.765625 -0.390625 C 0.503906 -0.648438 0.375 -0.957031 0.375 -1.3125 C 0.375 -1.675781 0.503906 -1.984375 0.765625 -2.234375 C 1.023438 -2.492188 1.425781 -2.863281 1.96875 -3.34375 C 2.507812 -3.832031 3 -4.269531 3.4375 -4.65625 C 3.882812 -5.039062 4.125 -5.253906 4.15625 -5.296875 L 2.046875 -5.296875 C 1.472656 -5.296875 1.113281 -5.390625 0.96875 -5.578125 C 0.789062 -5.796875 0.703125 -6.082031 0.703125 -6.4375 C 0.703125 -6.800781 0.726562 -7.070312 0.78125 -7.25 C 0.832031 -7.425781 0.890625 -7.554688 0.953125 -7.640625 C 1.023438 -7.722656 1.128906 -7.789062 1.265625 -7.84375 C 1.429688 -7.894531 1.691406 -7.921875 2.046875 -7.921875 L 6.921875 -7.921875 C 7.273438 -7.921875 7.582031 -7.796875 7.84375 -7.546875 C 8.101562 -7.296875 8.234375 -6.984375 8.234375 -6.609375 C 8.234375 -6.234375 8.082031 -5.898438 7.78125 -5.609375 C 7.476562 -5.316406 6.398438 -4.328125 4.546875 -2.640625 Z M 4.546875 -2.640625 "/></g></g></g><g clip-path="url(#669501e046)"><path fill="#ffffff" d="M 2.261719 11.125 L 7.769531 11.125 C 7.320312 11.433594 6.929688 11.804688 6.601562 12.242188 C 6.269531 12.675781 6.015625 13.148438 5.839844 13.664062 C 5.660156 14.179688 5.570312 14.710938 5.558594 15.253906 C 5.550781 15.800781 5.628906 16.332031 5.792969 16.851562 C 5.953125 17.375 6.191406 17.855469 6.507812 18.300781 C 6.824219 18.742188 7.203125 19.128906 7.640625 19.449219 C 8.082031 19.773438 8.558594 20.019531 9.078125 20.191406 C 9.59375 20.359375 10.128906 20.445312 10.671875 20.445312 L 18.566406 20.445312 L 18.558594 20.457031 C 19.097656 20.496094 19.609375 20.632812 20.097656 20.867188 C 20.585938 21.101562 21.015625 21.417969 21.382812 21.816406 C 21.753906 22.210938 22.035156 22.664062 22.234375 23.167969 C 22.433594 23.671875 22.53125 24.195312 22.53125 24.734375 L 10.671875 24.734375 C 10.273438 24.734375 9.875 24.710938 9.480469 24.660156 C 9.082031 24.609375 8.691406 24.53125 8.308594 24.433594 C 7.921875 24.332031 7.542969 24.207031 7.171875 24.058594 C 6.800781 23.910156 6.441406 23.738281 6.09375 23.542969 C 5.746094 23.347656 5.410156 23.132812 5.089844 22.898438 C 4.769531 22.660156 4.464844 22.402344 4.175781 22.128906 C 3.886719 21.851562 3.617188 21.558594 3.367188 21.25 C 3.113281 20.9375 2.882812 20.613281 2.675781 20.273438 C 2.464844 19.933594 2.277344 19.582031 2.113281 19.21875 C 1.945312 18.855469 1.804688 18.484375 1.6875 18.101562 C 1.570312 17.722656 1.476562 17.332031 1.410156 16.941406 C 1.339844 16.546875 1.296875 16.152344 1.28125 15.753906 C 1.261719 15.355469 1.269531 14.957031 1.300781 14.558594 C 1.335938 14.160156 1.390625 13.765625 1.476562 13.375 C 1.558594 12.984375 1.664062 12.601562 1.796875 12.226562 C 1.929688 11.847656 2.082031 11.480469 2.261719 11.125 Z M 2.261719 11.125 " fill-opacity="1" fill-rule="evenodd"/></g><g clip-path="url(#f8ba4a58be)"><path fill="#70b5ff" d="M 10.671875 5.929688 C 11.070312 5.929688 11.46875 5.957031 11.863281 6.007812 C 12.261719 6.058594 12.652344 6.132812 13.039062 6.234375 C 13.421875 6.335938 13.800781 6.457031 14.171875 6.605469 C 14.542969 6.757812 14.902344 6.925781 15.25 7.121094 C 15.597656 7.316406 15.933594 7.53125 16.253906 7.769531 C 16.574219 8.007812 16.878906 8.261719 17.167969 8.539062 C 17.457031 8.8125 17.726562 9.105469 17.980469 9.417969 C 18.230469 9.726562 18.460938 10.050781 18.671875 10.390625 C 18.878906 10.730469 19.066406 11.082031 19.230469 11.445312 C 19.398438 11.808594 19.539062 12.179688 19.65625 12.5625 C 19.773438 12.945312 19.867188 13.332031 19.933594 13.726562 C 20.003906 14.117188 20.046875 14.515625 20.066406 14.914062 C 20.082031 15.3125 20.074219 15.710938 20.042969 16.105469 C 20.011719 16.503906 19.953125 16.898438 19.871094 17.289062 C 19.785156 17.679688 19.679688 18.0625 19.546875 18.441406 C 19.414062 18.816406 19.261719 19.183594 19.082031 19.539062 L 13.578125 19.539062 C 14.023438 19.230469 14.414062 18.859375 14.742188 18.425781 C 15.074219 17.992188 15.328125 17.515625 15.503906 17 C 15.683594 16.484375 15.777344 15.953125 15.785156 15.410156 C 15.792969 14.863281 15.714844 14.332031 15.554688 13.8125 C 15.390625 13.292969 15.152344 12.808594 14.835938 12.367188 C 14.519531 11.921875 14.140625 11.539062 13.703125 11.214844 C 13.261719 10.890625 12.785156 10.644531 12.265625 10.476562 C 11.75 10.304688 11.21875 10.21875 10.671875 10.21875 L 2.78125 10.21875 C 3.207031 9.5625 3.707031 8.964844 4.28125 8.433594 C 4.859375 7.898438 5.492188 7.445312 6.179688 7.070312 C 6.871094 6.695312 7.59375 6.414062 8.355469 6.21875 C 9.113281 6.027344 9.886719 5.929688 10.671875 5.929688 Z M 10.671875 5.929688 " fill-opacity="1" fill-rule="evenodd"/></g><g fill="#ffffff" fill-opacity="1"><g transform="translate(41.320351, 25.121114)"><g><path d="M 2.953125 0 C 1.773438 0 1.1875 -0.582031 1.1875 -1.75 L 1.1875 -11.25 C 1.1875 -12.414062 1.773438 -13 2.953125 -13 L 7.453125 -13 C 8.847656 -13 9.929688 -12.691406 10.703125 -12.078125 C 11.472656 -11.472656 11.859375 -10.660156 11.859375 -9.640625 C 11.859375 -8.960938 11.6875 -8.367188 11.34375 -7.859375 C 11.007812 -7.359375 10.539062 -6.988281 9.9375 -6.75 C 10.664062 -6.53125 11.222656 -6.15625 11.609375 -5.625 C 12.003906 -5.101562 12.203125 -4.457031 12.203125 -3.6875 C 12.203125 -2.539062 11.789062 -1.640625 10.96875 -0.984375 C 10.15625 -0.328125 9.046875 0 7.640625 0 Z M 4.421875 -7.828125 L 6.84375 -7.828125 C 7.457031 -7.828125 7.90625 -7.9375 8.1875 -8.15625 C 8.476562 -8.382812 8.625 -8.726562 8.625 -9.1875 C 8.625 -9.632812 8.476562 -9.96875 8.1875 -10.1875 C 7.90625 -10.40625 7.457031 -10.515625 6.84375 -10.515625 L 4.421875 -10.515625 Z M 4.421875 -2.484375 L 7.171875 -2.484375 C 7.796875 -2.484375 8.253906 -2.601562 8.546875 -2.84375 C 8.835938 -3.082031 8.984375 -3.441406 8.984375 -3.921875 C 8.984375 -4.398438 8.835938 -4.753906 8.546875 -4.984375 C 8.253906 -5.222656 7.796875 -5.34375 7.171875 -5.34375 L 4.421875 -5.34375 Z M 4.421875 -2.484375 "/></g></g></g><g fill="#ffffff" fill-opacity="1"><g transform="translate(52.987407, 25.121114)"><g><path d="M 2.875 0.171875 C 2.332031 0.171875 1.914062 0.0234375 1.625 -0.265625 C 1.332031 -0.566406 1.1875 -0.992188 1.1875 -1.546875 L 1.1875 -11.453125 C 1.1875 -12.003906 1.332031 -12.425781 1.625 -12.71875 C 1.914062 -13.019531 2.332031 -13.171875 2.875 -13.171875 C 3.414062 -13.171875 3.832031 -13.019531 4.125 -12.71875 C 4.425781 -12.425781 4.578125 -12.003906 4.578125 -11.453125 L 4.578125 -7.4375 L 4.609375 -7.4375 L 9.09375 -12.375 C 9.320312 -12.613281 9.566406 -12.804688 9.828125 -12.953125 C 10.097656 -13.097656 10.398438 -13.171875 10.734375 -13.171875 C 11.234375 -13.171875 11.597656 -13.035156 11.828125 -12.765625 C 12.066406 -12.503906 12.171875 -12.191406 12.140625 -11.828125 C 12.117188 -11.472656 11.976562 -11.15625 11.71875 -10.875 L 7.890625 -6.828125 L 11.953125 -2.234375 C 12.265625 -1.878906 12.421875 -1.515625 12.421875 -1.140625 C 12.421875 -0.773438 12.289062 -0.460938 12.03125 -0.203125 C 11.78125 0.046875 11.414062 0.171875 10.9375 0.171875 C 10.519531 0.171875 10.179688 0.0859375 9.921875 -0.078125 C 9.660156 -0.242188 9.390625 -0.492188 9.109375 -0.828125 L 4.609375 -5.859375 L 4.578125 -5.859375 L 4.578125 -1.546875 C 4.578125 -0.992188 4.429688 -0.566406 4.140625 -0.265625 C 3.847656 0.0234375 3.425781 0.171875 2.875 0.171875 Z M 2.875 0.171875 "/></g></g></g></svg>