<svg xmlns="http://www.w3.org/2000/svg" xmlns:xlink="http://www.w3.org/1999/xlink" width="40" zoomAndPan="magnify" viewBox="0 0 30 30.000001" height="40" preserveAspectRatio="xMidYMid meet" version="1.0"><defs><clipPath id="f714fd04f0"><path d="M 3.386719 2.902344 L 26.613281 2.902344 L 26.613281 26.128906 L 3.386719 26.128906 Z M 3.386719 2.902344 " clip-rule="nonzero"/></clipPath></defs><path fill="#000000" d="M 10.082031 15.386719 L 13.566406 18.867188 C 14 19.304688 14.761719 18.976562 14.761719 18.324219 L 14.761719 16.550781 C 14.761719 16.085938 15.136719 15.710938 15.601562 15.710938 L 18.789062 15.710938 C 19.441406 15.710938 19.984375 15.167969 19.984375 14.515625 C 19.984375 13.863281 19.441406 13.316406 18.789062 13.316406 L 15.601562 13.316406 C 15.136719 13.316406 14.761719 12.941406 14.761719 12.480469 L 14.761719 10.707031 C 14.761719 10.054688 14 9.726562 13.566406 10.160156 L 10.082031 13.644531 C 9.648438 14.296875 9.648438 14.949219 10.082031 15.386719 " fill-opacity="1" fill-rule="nonzero"/><g clip-path="url(#f714fd04f0)"><path fill="#000000" d="M 15 5.296875 C 20.027344 5.296875 24.21875 9.367188 24.21875 14.515625 C 24.21875 19.542969 20.148438 23.734375 15 23.734375 C 9.972656 23.734375 5.785156 19.664062 5.785156 14.515625 C 5.785156 9.488281 9.855469 5.296875 15 5.296875 Z M 15 26.128906 C 21.464844 26.128906 26.613281 20.980469 26.613281 14.515625 C 26.613281 8.050781 21.464844 2.902344 15 2.902344 C 8.535156 2.902344 3.390625 8.050781 3.390625 14.515625 C 3.269531 20.980469 8.535156 26.128906 15 26.128906 " fill-opacity="1" fill-rule="nonzero"/></g></svg>