<svg xmlns="http://www.w3.org/2000/svg" xmlns:xlink="http://www.w3.org/1999/xlink" width="50" zoomAndPan="magnify" viewBox="0 0 37.5 37.499999" height="50" preserveAspectRatio="xMidYMid meet" version="1.0"><defs><clipPath id="4176c37e06"><path d="M 22 22 L 33.304688 22 L 33.304688 33.304688 L 22 33.304688 Z M 22 22 " clip-rule="nonzero"/></clipPath><clipPath id="e3e3476501"><path d="M 3.699219 3.699219 L 27 3.699219 L 27 27 L 3.699219 27 Z M 3.699219 3.699219 " clip-rule="nonzero"/></clipPath></defs><path fill="#000000" d="M 20.921875 22.765625 L 22.765625 20.921875 L 26.511719 24.667969 L 24.667969 26.511719 Z M 20.921875 22.765625 " fill-opacity="1" fill-rule="nonzero"/><g clip-path="url(#4176c37e06)"><path fill="#000000" d="M 32.425781 28.488281 C 33.238281 29.304688 33.238281 30.625 32.425781 31.441406 L 31.441406 32.425781 C 30.625 33.242188 29.304688 33.242188 28.488281 32.425781 L 23.214844 27.148438 C 22.398438 26.332031 22.398438 25.011719 23.210938 24.195312 L 24.195312 23.210938 C 25.011719 22.398438 26.335938 22.398438 27.152344 23.210938 Z M 32.425781 28.488281 " fill-opacity="1" fill-rule="nonzero"/></g><g clip-path="url(#e3e3476501)"><path fill="#000000" d="M 14.902344 3.6875 C 8.707031 3.6875 3.6875 8.707031 3.6875 14.902344 C 3.6875 21.097656 8.707031 26.121094 14.902344 26.121094 C 21.097656 26.121094 26.121094 21.097656 26.121094 14.902344 C 26.121094 8.707031 21.097656 3.6875 14.902344 3.6875 Z M 14.902344 24.042969 C 9.851562 24.042969 5.761719 19.953125 5.761719 14.902344 C 5.761719 9.851562 9.851562 5.761719 14.902344 5.761719 C 19.953125 5.761719 24.042969 9.851562 24.042969 14.902344 C 24.042969 19.953125 19.953125 24.042969 14.902344 24.042969 Z M 14.902344 24.042969 " fill-opacity="1" fill-rule="nonzero"/></g><path fill="#000000" d="M 17.203125 20.453125 C 12.730469 20.453125 9.097656 16.828125 9.097656 12.351562 C 9.097656 12.234375 9.113281 12.117188 9.117188 11.996094 C 8.527344 12.953125 8.179688 14.078125 8.179688 15.28125 C 8.179688 18.742188 10.984375 21.546875 14.445312 21.546875 C 15.78125 21.546875 17.015625 21.125 18.035156 20.414062 C 17.761719 20.441406 17.484375 20.453125 17.203125 20.453125 Z M 17.203125 20.453125 " fill-opacity="1" fill-rule="nonzero"/></svg>